<mxfile host="Electron" modified="2024-12-28T21:12:55.237Z" agent="Mozilla/5.0 (Windows NT 10.0; Win64; x64) AppleWebKit/537.36 (KHTML, like Gecko) draw.io/22.1.16 Chrome/120.0.6099.109 Electron/28.1.0 Safari/537.36" etag="paGzzTeuMWgYktftsmcM" version="22.1.16" type="device">
  <diagram name="Side-1" id="BLVMIs83CNMpAMIA5lif">
    <mxGraphModel dx="757" dy="814" grid="1" gridSize="10" guides="1" tooltips="1" connect="1" arrows="1" fold="1" page="1" pageScale="1" pageWidth="827" pageHeight="1169" math="0" shadow="0">
      <root>
        <mxCell id="0" />
        <mxCell id="1" parent="0" />
        <mxCell id="YaXA9CTH5SisZ1wc1L60-18" value="&lt;b&gt;seq &lt;/b&gt;Biquad example" style="shape=umlFrame;whiteSpace=wrap;html=1;pointerEvents=0;width=130;height=30;" vertex="1" parent="1">
          <mxGeometry width="690" height="240" as="geometry" />
        </mxCell>
        <mxCell id="YaXA9CTH5SisZ1wc1L60-1" value="&lt;font style=&quot;font-size: 11px;&quot;&gt;&amp;lt;&amp;lt;PS&amp;gt;&amp;gt;&lt;br&gt;Main&lt;br&gt;&lt;/font&gt;" style="shape=umlLifeline;perimeter=lifelinePerimeter;whiteSpace=wrap;html=1;container=0;dropTarget=0;collapsible=0;recursiveResize=0;outlineConnect=0;portConstraint=eastwest;newEdgeStyle={&quot;edgeStyle&quot;:&quot;elbowEdgeStyle&quot;,&quot;elbow&quot;:&quot;vertical&quot;,&quot;curved&quot;:0,&quot;rounded&quot;:0};" vertex="1" parent="1">
          <mxGeometry x="40" y="40" width="100" height="200" as="geometry" />
        </mxCell>
        <mxCell id="YaXA9CTH5SisZ1wc1L60-2" value="" style="html=1;points=[];perimeter=orthogonalPerimeter;outlineConnect=0;targetShapes=umlLifeline;portConstraint=eastwest;newEdgeStyle={&quot;edgeStyle&quot;:&quot;elbowEdgeStyle&quot;,&quot;elbow&quot;:&quot;vertical&quot;,&quot;curved&quot;:0,&quot;rounded&quot;:0};" vertex="1" parent="YaXA9CTH5SisZ1wc1L60-1">
          <mxGeometry x="45" y="70" width="10" height="120" as="geometry" />
        </mxCell>
        <mxCell id="YaXA9CTH5SisZ1wc1L60-3" value="Start" style="html=1;verticalAlign=bottom;startArrow=oval;endArrow=block;startSize=8;edgeStyle=elbowEdgeStyle;elbow=vertical;curved=0;rounded=0;" edge="1" parent="YaXA9CTH5SisZ1wc1L60-1" target="YaXA9CTH5SisZ1wc1L60-2">
          <mxGeometry relative="1" as="geometry">
            <mxPoint x="-15" y="70" as="sourcePoint" />
          </mxGeometry>
        </mxCell>
        <mxCell id="YaXA9CTH5SisZ1wc1L60-17" value="" style="html=1;points=[];perimeter=orthogonalPerimeter;outlineConnect=0;targetShapes=umlLifeline;portConstraint=eastwest;newEdgeStyle={&quot;edgeStyle&quot;:&quot;elbowEdgeStyle&quot;,&quot;elbow&quot;:&quot;vertical&quot;,&quot;curved&quot;:0,&quot;rounded&quot;:0};" vertex="1" parent="YaXA9CTH5SisZ1wc1L60-1">
          <mxGeometry x="50" y="140" width="10" height="40" as="geometry" />
        </mxCell>
        <mxCell id="YaXA9CTH5SisZ1wc1L60-4" value="&lt;font style=&quot;font-size: 11px;&quot;&gt;&amp;lt;&amp;lt;FPGA&amp;gt;&amp;gt;&lt;br&gt;BiquadFilterStart&lt;/font&gt;" style="shape=umlLifeline;perimeter=lifelinePerimeter;whiteSpace=wrap;html=1;container=0;dropTarget=0;collapsible=0;recursiveResize=0;outlineConnect=0;portConstraint=eastwest;newEdgeStyle={&quot;edgeStyle&quot;:&quot;elbowEdgeStyle&quot;,&quot;elbow&quot;:&quot;vertical&quot;,&quot;curved&quot;:0,&quot;rounded&quot;:0};" vertex="1" parent="1">
          <mxGeometry x="220" y="40" width="100" height="200" as="geometry" />
        </mxCell>
        <mxCell id="YaXA9CTH5SisZ1wc1L60-5" value="" style="html=1;points=[];perimeter=orthogonalPerimeter;outlineConnect=0;targetShapes=umlLifeline;portConstraint=eastwest;newEdgeStyle={&quot;edgeStyle&quot;:&quot;elbowEdgeStyle&quot;,&quot;elbow&quot;:&quot;vertical&quot;,&quot;curved&quot;:0,&quot;rounded&quot;:0};" vertex="1" parent="YaXA9CTH5SisZ1wc1L60-4">
          <mxGeometry x="45" y="80" width="10" height="20" as="geometry" />
        </mxCell>
        <mxCell id="YaXA9CTH5SisZ1wc1L60-6" value="WriteSample(sample)" style="html=1;verticalAlign=bottom;endArrow=block;edgeStyle=elbowEdgeStyle;elbow=vertical;curved=0;rounded=0;" edge="1" parent="1" source="YaXA9CTH5SisZ1wc1L60-2" target="YaXA9CTH5SisZ1wc1L60-5">
          <mxGeometry relative="1" as="geometry">
            <mxPoint x="195" y="130" as="sourcePoint" />
            <Array as="points">
              <mxPoint x="180" y="120" />
            </Array>
          </mxGeometry>
        </mxCell>
        <mxCell id="YaXA9CTH5SisZ1wc1L60-7" value="&lt;font style=&quot;font-size: 10px;&quot;&gt;&amp;lt;&amp;lt;FPGA&amp;gt;&amp;gt;&lt;br&gt;BiquadFilterBetween0&lt;/font&gt;" style="shape=umlLifeline;perimeter=lifelinePerimeter;whiteSpace=wrap;html=1;container=0;dropTarget=0;collapsible=0;recursiveResize=0;outlineConnect=0;portConstraint=eastwest;newEdgeStyle={&quot;edgeStyle&quot;:&quot;elbowEdgeStyle&quot;,&quot;elbow&quot;:&quot;vertical&quot;,&quot;curved&quot;:0,&quot;rounded&quot;:0};" vertex="1" parent="1">
          <mxGeometry x="400" y="40" width="100" height="200" as="geometry" />
        </mxCell>
        <mxCell id="YaXA9CTH5SisZ1wc1L60-8" value="" style="html=1;points=[];perimeter=orthogonalPerimeter;outlineConnect=0;targetShapes=umlLifeline;portConstraint=eastwest;newEdgeStyle={&quot;edgeStyle&quot;:&quot;elbowEdgeStyle&quot;,&quot;elbow&quot;:&quot;vertical&quot;,&quot;curved&quot;:0,&quot;rounded&quot;:0};" vertex="1" parent="YaXA9CTH5SisZ1wc1L60-7">
          <mxGeometry x="45" y="100" width="10" height="20" as="geometry" />
        </mxCell>
        <mxCell id="YaXA9CTH5SisZ1wc1L60-9" value="&lt;font style=&quot;font-size: 11px;&quot;&gt;&amp;lt;&amp;lt;FPGA&amp;gt;&amp;gt;&lt;br&gt;BiquadFilterEnd&lt;/font&gt;" style="shape=umlLifeline;perimeter=lifelinePerimeter;whiteSpace=wrap;html=1;container=0;dropTarget=0;collapsible=0;recursiveResize=0;outlineConnect=0;portConstraint=eastwest;newEdgeStyle={&quot;edgeStyle&quot;:&quot;elbowEdgeStyle&quot;,&quot;elbow&quot;:&quot;vertical&quot;,&quot;curved&quot;:0,&quot;rounded&quot;:0};" vertex="1" parent="1">
          <mxGeometry x="580" y="40" width="100" height="200" as="geometry" />
        </mxCell>
        <mxCell id="YaXA9CTH5SisZ1wc1L60-10" value="" style="html=1;points=[];perimeter=orthogonalPerimeter;outlineConnect=0;targetShapes=umlLifeline;portConstraint=eastwest;newEdgeStyle={&quot;edgeStyle&quot;:&quot;elbowEdgeStyle&quot;,&quot;elbow&quot;:&quot;vertical&quot;,&quot;curved&quot;:0,&quot;rounded&quot;:0};" vertex="1" parent="YaXA9CTH5SisZ1wc1L60-9">
          <mxGeometry x="45" y="120" width="10" height="70" as="geometry" />
        </mxCell>
        <mxCell id="YaXA9CTH5SisZ1wc1L60-11" value="TransferSample(sample)" style="html=1;verticalAlign=bottom;endArrow=block;edgeStyle=elbowEdgeStyle;elbow=vertical;curved=0;rounded=0;exitX=0.5;exitY=1;exitDx=0;exitDy=0;exitPerimeter=0;" edge="1" parent="YaXA9CTH5SisZ1wc1L60-9" target="YaXA9CTH5SisZ1wc1L60-10">
          <mxGeometry relative="1" as="geometry">
            <mxPoint x="-130" y="120" as="sourcePoint" />
            <Array as="points">
              <mxPoint x="-35" y="120" />
            </Array>
            <mxPoint x="40" y="120" as="targetPoint" />
          </mxGeometry>
        </mxCell>
        <mxCell id="YaXA9CTH5SisZ1wc1L60-12" value="" style="html=1;points=[[0,0,0,0,5],[0,1,0,0,-5],[1,0,0,0,5],[1,1,0,0,-5]];perimeter=orthogonalPerimeter;outlineConnect=0;targetShapes=umlLifeline;portConstraint=eastwest;newEdgeStyle={&quot;curved&quot;:0,&quot;rounded&quot;:0};" vertex="1" parent="YaXA9CTH5SisZ1wc1L60-9">
          <mxGeometry x="40" y="160" width="10" height="20" as="geometry" />
        </mxCell>
        <mxCell id="YaXA9CTH5SisZ1wc1L60-13" value="ReadSample()" style="html=1;verticalAlign=bottom;endArrow=block;curved=0;rounded=0;" edge="1" parent="YaXA9CTH5SisZ1wc1L60-9" source="YaXA9CTH5SisZ1wc1L60-17">
          <mxGeometry width="80" relative="1" as="geometry">
            <mxPoint x="-460" y="160" as="sourcePoint" />
            <mxPoint x="40" y="160" as="targetPoint" />
          </mxGeometry>
        </mxCell>
        <mxCell id="YaXA9CTH5SisZ1wc1L60-14" value="return sample" style="html=1;verticalAlign=bottom;endArrow=open;dashed=1;endSize=8;curved=0;rounded=0;" edge="1" parent="YaXA9CTH5SisZ1wc1L60-9" target="YaXA9CTH5SisZ1wc1L60-17">
          <mxGeometry relative="1" as="geometry">
            <mxPoint x="40" y="180" as="sourcePoint" />
            <mxPoint x="-470" y="180" as="targetPoint" />
          </mxGeometry>
        </mxCell>
        <mxCell id="YaXA9CTH5SisZ1wc1L60-15" value="TransferSample(sample)" style="html=1;verticalAlign=bottom;endArrow=block;edgeStyle=elbowEdgeStyle;elbow=vertical;curved=0;rounded=0;exitX=0.5;exitY=1;exitDx=0;exitDy=0;exitPerimeter=0;" edge="1" parent="1" source="YaXA9CTH5SisZ1wc1L60-5" target="YaXA9CTH5SisZ1wc1L60-8">
          <mxGeometry relative="1" as="geometry">
            <mxPoint x="280" y="140" as="sourcePoint" />
            <Array as="points">
              <mxPoint x="365" y="140" />
            </Array>
            <mxPoint x="440" y="140" as="targetPoint" />
          </mxGeometry>
        </mxCell>
        <mxCell id="YaXA9CTH5SisZ1wc1L60-16" value="Interrupt" style="html=1;verticalAlign=bottom;endArrow=block;curved=0;rounded=0;" edge="1" parent="1">
          <mxGeometry width="80" relative="1" as="geometry">
            <mxPoint x="625" y="180" as="sourcePoint" />
            <mxPoint x="100" y="180" as="targetPoint" />
          </mxGeometry>
        </mxCell>
      </root>
    </mxGraphModel>
  </diagram>
</mxfile>
